<svg xmlns="http://www.w3.org/2000/svg" viewBox="0 0 1280 400" width="1280" height="400" role="img" aria-label="metal - small files, low-level languages">
<rect width="1280" height="400" fill="#0D1117"/>
<path d="M24 40V24H40" fill="none" stroke="#E6EDF3" stroke-opacity=".3" stroke-width="1"/>
<path d="M1256 40V24H1240" fill="none" stroke="#E6EDF3" stroke-opacity=".3" stroke-width="1"/>
<path d="M24 360V376H40" fill="none" stroke="#E6EDF3" stroke-opacity=".3" stroke-width="1"/>
<path d="M1256 360V376H1240" fill="none" stroke="#E6EDF3" stroke-opacity=".3" stroke-width="1"/>
<rect x="80" y="88" width="64" height="4" fill="#FF7A18"/>
<text x="80" y="122" font-family="ui-monospace,SFMono-Regular,Menlo,Consolas,monospace" font-size="18" letter-spacing="4" fill="#8B949E">CLAUDE CODE PLUGIN</text>
<rect x="80" y="140" width="18" height="110" fill="#E6EDF3"/>
<rect x="130" y="140" width="18" height="110" fill="#E6EDF3"/>
<rect x="80" y="140" width="68" height="18" fill="#E6EDF3"/>
<rect x="105" y="140" width="18" height="55" fill="#E6EDF3"/>
<rect x="170" y="140" width="18" height="110" fill="#E6EDF3"/>
<rect x="170" y="140" width="60" height="18" fill="#E6EDF3"/>
<rect x="170" y="186" width="48" height="18" fill="#E6EDF3"/>
<rect x="170" y="232" width="60" height="18" fill="#E6EDF3"/>
<rect x="252" y="140" width="68" height="18" fill="#E6EDF3"/>
<rect x="277" y="140" width="18" height="110" fill="#E6EDF3"/>
<rect x="342" y="140" width="18" height="110" fill="#E6EDF3"/>
<rect x="392" y="140" width="18" height="110" fill="#E6EDF3"/>
<rect x="342" y="140" width="68" height="18" fill="#E6EDF3"/>
<rect x="342" y="186" width="68" height="18" fill="#E6EDF3"/>
<rect x="432" y="140" width="18" height="110" fill="#E6EDF3"/>
<rect x="432" y="232" width="60" height="18" fill="#E6EDF3"/>
<rect x="80" y="282" width="500" height="1" fill="#E6EDF3" fill-opacity=".22"/>
<text x="80" y="318" font-family="ui-monospace,SFMono-Regular,Menlo,Consolas,monospace" font-size="24" letter-spacing="1" fill="#E6EDF3">SMALL FILES &#183; LOW-LEVEL LANGUAGES</text>
<text x="80" y="348" font-family="ui-monospace,SFMono-Regular,Menlo,Consolas,monospace" font-size="16" letter-spacing="1" fill="#8B949E">ENFORCED BY HOOK, NOT BY ASKING</text>
<rect x="720" y="40" width="210" height="5" rx="1" fill="#3D444D" fill-opacity="1"/>
<rect x="720" y="51" width="140" height="5" rx="1" fill="#3D444D" fill-opacity="1"/>
<rect x="720" y="73" width="260" height="5" rx="1" fill="#3D444D" fill-opacity="1"/>
<rect x="744" y="84" width="300" height="5" rx="1" fill="#3D444D" fill-opacity="1"/>
<rect x="744" y="95" width="180" height="5" rx="1" fill="#3D444D" fill-opacity="1"/>
<rect x="768" y="106" width="240" height="5" rx="1" fill="#3D444D" fill-opacity="1"/>
<rect x="768" y="117" width="150" height="5" rx="1" fill="#3D444D" fill-opacity="1"/>
<rect x="744" y="128" width="90" height="5" rx="1" fill="#3D444D" fill-opacity="1"/>
<rect x="720" y="150" width="200" height="5" rx="1" fill="#3D444D" fill-opacity="1"/>
<rect x="744" y="161" width="330" height="5" rx="1" fill="#3D444D" fill-opacity="1"/>
<rect x="744" y="172" width="120" height="5" rx="1" fill="#3D444D" fill-opacity="1"/>
<rect x="768" y="183" width="270" height="5" rx="1" fill="#3D444D" fill-opacity="1"/>
<rect x="768" y="194" width="220" height="5" rx="1" fill="#3D444D" fill-opacity="1"/>
<rect x="768" y="205" width="160" height="5" rx="1" fill="#3D444D" fill-opacity="1"/>
<rect x="744" y="216" width="80" height="5" rx="1" fill="#3D444D" fill-opacity="1"/>
<rect x="720" y="238" width="240" height="5" rx="1" fill="#3D444D" fill-opacity="1"/>
<rect x="744" y="249" width="290" height="5" rx="1" fill="#3D444D" fill-opacity="1"/>
<rect x="744" y="260" width="190" height="5" rx="1" fill="#3D444D" fill-opacity="1"/>
<rect x="768" y="271" width="250" height="5" rx="1" fill="#3D444D" fill-opacity="1"/>
<rect x="768" y="290" width="210" height="5" rx="1" fill="#F85149" fill-opacity=".55"/>
<rect x="744" y="301" width="130" height="5" rx="1" fill="#F85149" fill-opacity=".55"/>
<rect x="720" y="323" width="280" height="5" rx="1" fill="#F85149" fill-opacity=".55"/>
<rect x="744" y="334" width="320" height="5" rx="1" fill="#F85149" fill-opacity=".55"/>
<rect x="744" y="345" width="170" height="5" rx="1" fill="#F85149" fill-opacity=".55"/>
<rect x="768" y="356" width="230" height="5" rx="1" fill="#F85149" fill-opacity=".55"/>
<rect x="744" y="367" width="100" height="5" rx="1" fill="#F85149" fill-opacity=".55"/>
<rect x="700" y="282" width="500" height="2" fill="#FF7A18"/>
<rect x="700" y="277" width="2" height="12" fill="#FF7A18"/>
<text x="1200" y="272" text-anchor="end" font-family="ui-monospace,SFMono-Regular,Menlo,Consolas,monospace" font-size="17" letter-spacing="2" fill="#FF7A18">300</text>
</svg>
